<svg width="59" height="20" viewBox="0 0 59 20" fill="none" xmlns="http://www.w3.org/2000/svg">
<g clip-path="url(#clip0_704_545)">
<path d="M0 19.5676V0.216229H6.70257C7.53798 0.210455 8.36748 0.356707 9.15054 0.647843C9.89243 0.921623 10.5756 1.33382 11.1637 1.86252C11.7612 2.40573 12.2363 3.06987 12.5574 3.81082C12.8785 4.55177 13.0383 5.35258 13.0262 6.16003C13.0346 6.96289 12.873 7.75844 12.552 8.49438C12.231 9.23032 11.7578 9.88999 11.1637 10.43C10.5757 10.9589 9.89254 11.3711 9.15054 11.6447C8.36804 11.9359 7.53911 12.0824 6.70419 12.0771H3.05369V19.5635L0 19.5676ZM6.78355 9.16189C7.24674 9.17088 7.70681 9.08432 8.13507 8.90762C8.51251 8.74956 8.85304 8.5149 9.13515 8.2185C9.40158 7.93662 9.61231 7.60692 9.75626 7.24676C9.89699 6.9036 9.97039 6.53658 9.97247 6.1657C9.97004 5.39422 9.67012 4.6534 9.13515 4.09752C8.82929 3.78667 8.46334 3.54136 8.05961 3.37652C7.65587 3.21169 7.2228 3.13078 6.78678 3.13873H3.05369V9.16513L6.78355 9.16189Z" fill="#191919"/>
<path d="M15.4045 6.3244V19.5676H18.4047V6.3244H15.4045Z" fill="#191919"/>
<path d="M18.9109 2.02445C18.9153 2.28999 18.8662 2.5537 18.7665 2.79983C18.6667 3.04596 18.5183 3.26945 18.3303 3.45695C18.1479 3.64913 17.9274 3.80123 17.683 3.90356C17.4386 4.00589 17.1756 4.05622 16.9107 4.05133V-6.27426e-06C17.1756 -0.00469046 17.4386 0.0457264 17.6829 0.148046C17.9273 0.250366 18.1477 0.402356 18.3303 0.594374C18.5179 0.781671 18.666 1.00478 18.7658 1.25045C18.8655 1.49612 18.9149 1.75933 18.9109 2.02445Z" fill="#35AF39"/>
<path d="M16.9082 2.73474e-05V4.0538C16.6399 4.05999 16.3732 4.01036 16.1251 3.90804C15.877 3.80572 15.6528 3.65295 15.4668 3.45942C15.2779 3.27195 15.1288 3.04817 15.0286 2.80157C14.9284 2.55496 14.8791 2.29063 14.8838 2.02448C14.88 1.75918 14.9296 1.49582 15.0298 1.25012C15.13 1.00442 15.2786 0.781418 15.4668 0.594407C15.653 0.401192 15.8772 0.248632 16.1253 0.146336C16.3734 0.0440394 16.64 -0.00577599 16.9082 2.73474e-05Z" fill="#00BAFC"/>
<path d="M24.9996 12.8375L20.4316 6.3244H23.9185L26.7827 10.5134H26.8637L29.536 6.3244H33.1574L28.5359 12.8375L33.2383 19.5676H29.6753L26.8103 15.2433H26.7293L23.8886 19.5676H20.3506L24.9996 12.8375Z" fill="#191919"/>
<path d="M46.837 16.4054C46.267 17.4441 45.4495 18.3261 44.4571 18.9732C43.4313 19.6588 42.1705 20.0017 40.6746 20.0017C39.7342 20.0115 38.8015 19.8322 37.9318 19.4745C37.1138 19.1369 36.3733 18.6356 35.7559 18.0015C35.1359 17.3603 34.649 16.6026 34.3234 15.7722C33.9729 14.8722 33.7986 13.9133 33.81 12.9476C33.8047 12.0202 33.9694 11.0997 34.2959 10.2316C34.6033 9.40338 35.0664 8.64168 35.6604 7.98772C36.2804 7.3151 37.0354 6.78091 37.876 6.42006C38.7166 6.0592 39.6238 5.87982 40.5385 5.89362C41.5642 5.89362 42.4788 6.06476 43.2821 6.40703C44.0578 6.73146 44.754 7.22018 45.3227 7.83953C45.8983 8.48225 46.3353 9.23675 46.6062 10.0559C46.9111 10.9694 47.0619 11.9272 47.0524 12.8901V13.1331C47.0351 13.2129 47.0259 13.2943 47.0249 13.376C47.0072 13.4467 46.9983 13.5193 46.9981 13.5922H36.8103C36.8481 14.1676 37.0044 14.7289 37.2694 15.2409C37.5017 15.6852 37.8183 16.0799 38.2015 16.403C38.5639 16.7057 38.9816 16.935 39.4315 17.0783C39.8589 17.2192 40.3056 17.2921 40.7555 17.2945C41.6193 17.2945 42.3311 17.0875 42.8909 16.6734C43.449 16.2588 43.9173 15.7354 44.2676 15.1349L46.837 16.4054ZM44.0522 11.2973C44.0045 10.986 43.9183 10.6819 43.7955 10.392C43.6524 10.0474 43.4411 9.73531 43.1744 9.47448C42.8604 9.17224 42.4941 8.92967 42.0933 8.75863C41.6522 8.56051 41.1164 8.46144 40.4859 8.46144C39.6221 8.46144 38.8787 8.71815 38.2557 9.23155C37.6328 9.74495 37.2138 10.4335 36.999 11.2973H44.0522Z" fill="#191919"/>
<path d="M49.323 6.32442H52.1572V8.32458H52.3192C52.4896 7.97314 52.7142 7.65069 52.9848 7.36904C53.263 7.07163 53.5817 6.81484 53.9315 6.60623C54.2826 6.39792 54.6541 6.22589 55.0401 6.09282C55.4001 5.96387 55.7792 5.89599 56.1616 5.892C56.5346 5.88501 56.9069 5.92611 57.2694 6.01427C57.5619 6.0907 57.8435 6.20389 58.1075 6.35114L57.2427 9.08092C57.0308 8.98695 56.8084 8.91897 56.5803 8.87847C56.2903 8.82972 55.9965 8.80695 55.7025 8.81045C55.2391 8.80506 54.7808 8.90764 54.3639 9.11007C53.9584 9.3094 53.5958 9.58614 53.2966 9.92471C52.9822 10.2827 52.7393 10.6974 52.5807 11.1467C52.408 11.6257 52.3211 12.1315 52.324 12.6407V19.5676H49.3279L49.323 6.32442Z" fill="#191919"/>
</g>
<defs>
<clipPath id="clip0_704_545">
<rect width="58.1067" height="20" fill="white"/>
</clipPath>
</defs>
</svg>
